HIERARCHY
ROOT Hips
{
  OFFSET 40.9192 92.6879 18.85
  CHANNELS 6 Xposition Yposition Zposition Zrotation Xrotation Yrotation
  JOINT LeftUpLeg
  {
    OFFSET 8.64259 1.95398 -2.38835
    CHANNELS 3 Zrotation Xrotation Yrotation
    JOINT LeftLeg
    {
      OFFSET 43.7702 0 0
      CHANNELS 3 Zrotation Xrotation Yrotation
      JOINT LeftFoot
      {
        OFFSET 40.6238 0 0
        CHANNELS 3 Zrotation Xrotation Yrotation
        JOINT LeftToeBase
        {
          OFFSET 12.7242 0 0
          CHANNELS 3 Zrotation Xrotation Yrotation
          End Site
          {
            OFFSET 0 0 0
          }
        }
      }
    }
  }
  JOINT RightUpLeg
  {
    OFFSET -8.2249 1.95398 -2.59336
    CHANNELS 3 Zrotation Xrotation Yrotation
    JOINT RightLeg
    {
      OFFSET 43.5653 0 0
      CHANNELS 3 Zrotation Xrotation Yrotation
      JOINT RightFoot
      {
        OFFSET 40.6238 0 0
        CHANNELS 3 Zrotation Xrotation Yrotation
        JOINT RightToeBase
        {
          OFFSET 12.7242 0 0
          CHANNELS 3 Zrotation Xrotation Yrotation
          End Site
          {
            OFFSET 0 0 0
          }
        }
      }
    }
  }
  JOINT Spine
  {
    OFFSET 0.165834 0.87714 6.61349
    CHANNELS 3 Zrotation Xrotation Yrotation
    JOINT Spine1
    {
      OFFSET 7.38963 1.71661e-005 0
      CHANNELS 3 Zrotation Xrotation Yrotation
      JOINT Spine2
      {
        OFFSET 11.9445 1.14441e-005 0
        CHANNELS 3 Zrotation Xrotation Yrotation
        JOINT Spine3
        {
          OFFSET 14.7254 4.19617e-005 0
          CHANNELS 3 Zrotation Xrotation Yrotation
          JOINT Spine4
          {
            OFFSET 10.9679 0 0
            CHANNELS 3 Zrotation Xrotation Yrotation
            JOINT RightShoulder
            {
              OFFSET 2.46616 -1.6653 3.69651
              CHANNELS 3 Zrotation Xrotation Yrotation
              JOINT RightArm
              {
                OFFSET 13.0012 0 0
                CHANNELS 3 Zrotation Xrotation Yrotation
                JOINT RightForeArm
                {
                  OFFSET 28.7848 1.52588e-005 0
                  CHANNELS 3 Zrotation Xrotation Yrotation
                  JOINT RightHand
                  {
                    OFFSET 26.5688 1.52588e-005 0
                    CHANNELS 3 Zrotation Xrotation Yrotation
                    End Site
                    {
                      OFFSET 0 0 0
                    }
                  }
                }
              }
            }
            JOINT LeftShoulder
            {
              OFFSET 2.38034 -1.29275 -3.7523
              CHANNELS 3 Zrotation Xrotation Yrotation
              JOINT LeftArm
              {
                OFFSET 16.3182 6.10351e-005 0
                CHANNELS 3 Zrotation Xrotation Yrotation
                JOINT LeftForeArm
                {
                  OFFSET 27.0901 0 0
                  CHANNELS 3 Zrotation Xrotation Yrotation
                  JOINT LeftHand
                  {
                    OFFSET 24.5451 1.52588e-005 0
                    CHANNELS 3 Zrotation Xrotation Yrotation
                    End Site
                    {
                      OFFSET 0 0 0
                    }
                  }
                }
              }
            }
            JOINT Neck
            {
              OFFSET 5.0226 -0.0266342 0
              CHANNELS 3 Zrotation Xrotation Yrotation
              JOINT Head
              {
                OFFSET 6.69363 2.86102e-005 0
                CHANNELS 3 Zrotation Xrotation Yrotation
                End Site
                {
                  OFFSET 0 0 0
                }
              }
            }
          }
        }
      }
    }
  }
}
MOTION
Frames:	17
Frame Time:	0.0416667
17.4608 82.5512 -19.1692 -84.0912 -50.0333 -87.7648 -167.948 24.3879 109.079 -52.4126 20.1207 0.941071 61.8319 6.98949 13.8484 55.72 23.1072 7.57735 165.404 56.7972 94.9341 -71.2199 2.2226 1.93343 65.5129 -3.97077 -2.16198 43.5981 0.0524841 -10.6188 -0.4847 9.21928 -88.6158 8.4314 -0.356271 2.75881 -3.24245 -0.234527 2.77179 -25.7576 -1.16868 2.52446 -5.7449 -1.16868 2.52446 91.2951 -47.4383 -99.3872 23.2638 -12.9816 29.5605 -17.2639 -35.1322 -53.1436 16.459 -0.00932896 4.08808 -96.4028 -39.7073 65.6318 -8.1877 -2.79631 -16.6335 20.7108 0.189964 -89.6288 23.1668 1.62663 3.20131 4.66657 -19.0093 1.73868 7.66161 -20.8738 -18.478 
11.8484 84.2663 -15.7571 -82.253 -46.4934 -88.7279 -165.608 15.5708 108.421 -42.2373 19.5327 0.177818 59.1036 3.22991 7.34485 54.3936 22.959 11.112 163.886 57.91 93.0441 -67.7229 1.72676 2.95706 60.4477 -1.73695 -0.946755 41.9061 0.219423 -8.53283 -0.667866 8.81249 -88.7803 9.25133 -0.785067 2.47439 -2.42181 -0.675421 2.5065 -24.944 -1.49227 2.12431 -4.93139 -1.49225 2.12431 91.2466 -46.3114 -99.7155 25.2116 -14.5838 37.5676 -17.4637 -33.3152 -54.8895 22.8149 -0.176554 1.63921 -95.3063 -40.5111 67.7242 -11.3097 0.588369 -11.6383 22.0065 -6.13334 -96.0741 21.5488 1.2118 1.76068 4.08968 -16.8823 3.40561 9.21533 -18.9251 -15.4193 
4.97214 86.2354 -12.4339 -80.7356 -42.7992 -91.0888 -164.37 5.44921 107.161 -29.2145 16.928 -0.259483 48.4502 -5.47437 -3.58669 53.52 23.1131 14.45 163.595 57.2867 90.5578 -64.8371 1.42383 3.80743 60.4587 -1.26991 -0.651381 42.6048 0.331062 -6.36874 -0.773087 8.41792 -88.7944 10.0427 -0.99199 2.47532 -1.63029 -0.882112 2.51654 -24.1544 -1.68992 2.06303 -4.14175 -1.68992 2.06303 90.8248 -46.0802 -100.447 27.7686 -14.717 43.2688 -14.8216 -32.0236 -53.6335 25.1872 -0.498917 -0.667593 -94.4983 -41.2147 69.2884 -13.2253 5.70285 -5.06631 22.9488 -7.96502 -99.8363 21.0734 1.17235 1.71044 2.321 -15.14 5.03684 10.2272 -17.231 -12.9251 
-2.59128 87.9447 -9.84606 -78.9877 -40.6206 -94.4889 -165.631 -3.6016 103.93 -15.6293 11.0953 0.442482 31.7368 -13.0325 -14.9869 43.7193 14.0269 18.497 164.012 56.0868 87.1546 -63.8968 2.96541 4.29931 63.1856 -1.78878 -0.951967 46.1311 0.171682 -8.0258 -0.980081 8.16114 -88.7354 10.5616 -1.37083 2.63765 -1.11137 -1.25349 2.69536 -23.6375 -2.10004 2.10402 -3.62488 -2.10005 2.10403 90.7705 -46.422 -100.454 28.875 -11.9968 44.8527 -13.893 -29.9389 -51.3647 24.8293 -0.313863 -0.176397 -93.5603 -41.3835 70.869 -16.7374 10.0994 0.690788 21.5437 -8.00936 -98.8681 19.3898 0.898897 0.769703 2.55785 -13.6478 6.25714 11.1086 -15.6022 -9.70805 
-10.2733 89.0842 -7.5008 -75.8004 -37.1462 -94.4169 -168.735 -4.86386 101.093 -16.7106 14.9384 1.47238 31.9724 -14.0149 -10.0025 30.0205 -0.352057 14.3647 163.605 53.5252 88.1118 -62.874 6.76122 4.8932 66.9236 -3.0345 -1.65212 41.1714 0.258769 -7.9674 -0.912114 7.96226 -89.0313 10.9584 -1.3674 2.05741 -0.713586 -1.27556 2.11556 -23.2463 -1.92246 1.55144 -3.23364 -1.92246 1.55145 91.6272 -46.6469 -99.0281 28.8261 -9.97708 42.1372 -14.137 -28.3968 -50.3544 20.0559 -0.339934 -0.448799 -94.0041 -41.9046 70.3226 -21.1272 11.4481 6.32828 20.4764 -6.00572 -95.0269 16.488 0.798207 0.964957 4.45566 -12.2448 8.36746 12.3755 -14.39 -7.47624 
-17.3188 88.9625 -5.42687 -74.141 -32.0493 -95.1556 -170.76 -1.82705 97.7674 -28.8927 15.4171 1.38102 40.0311 -10.3876 -4.83912 31.3969 1.20782 12.2192 165.536 49.2986 88.9724 -62.4035 6.83066 4.43819 71.1605 -4.44083 -2.28885 40.8052 0.453874 -4.08475 -0.713994 7.96538 -89.3293 10.9484 -1.111 1.43937 -0.722913 -1.04659 1.48687 -23.2581 -1.49222 1.03895 -3.24547 -1.49222 1.03895 92.4716 -48.4456 -97.3246 25.5138 -10.4461 36.0878 -13.6407 -28.0153 -50.1279 11.905 -0.509482 -1.44247 -94.522 -43.6537 70.0678 -25.0463 12.2633 10.5239 20.9915 -3.35328 -87.032 20.381 1.02486 1.24117 6.84887 -10.6863 10.2871 13.3635 -12.9759 -4.74636 
-24.2119 88.0147 -3.63613 -72.3852 -25.4381 -94.0983 -170.997 4.13264 96.5651 -43.7798 16.8825 0.569221 43.1752 -9.13255 -4.07628 33.1142 2.86853 12.6519 168.849 44.3995 91.9445 -61.4899 6.53371 3.29875 79.8472 -7.61875 -3.31896 37.1036 0.399824 -1.92061 -0.327084 8.0175 -89.7056 10.84 -0.515203 0.633697 -0.830967 -0.486816 0.655757 -23.3662 -0.681825 0.449564 -3.35359 -0.68183 0.449562 92.7485 -50.4357 -96.5206 21.6952 -10.5651 28.004 -13.3332 -27.5089 -50.5626 2.58436 -0.496939 -1.46602 -94.6888 -45.9206 70.5342 -27.1778 12.5824 14.1753 17.5223 0.594568 -79.9776 22.5903 3.30376 10.8776 8.80065 -8.96034 11.3923 14.3757 -11.3778 -2.87638 
-30.4969 87.3388 -2.47604 -72.1695 -19.705 -93.6999 -170.54 13.4037 95.8512 -61.1042 17.7847 -0.196676 42.248 -9.6813 -3.77393 34.7124 4.4999 9.57079 171.864 39.7028 94.085 -61.0632 5.52429 1.68385 80.6041 -8.24711 -3.52907 42.9896 0.554712 -2.50774 0.0282133 8.3764 -89.9359 10.1208 0.0855499 0.12048 -1.55016 0.0907208 0.11659 -24.0853 0.0453891 0.140632 -4.07259 0.0453727 0.140613 92.6587 -51.0232 -96.5502 20.3862 -9.94246 18.035 -13.8911 -26.7604 -52.3502 -9.02243 -0.662137 0.417875 -95.3639 -47.3053 69.9401 -29.7181 14.3097 17.168 8.62543 2.85093 -66.1784 31.6132 2.09523 2.64781 12.4713 -7.55788 10.8998 15.3059 -9.92296 -1.04634 
-36.4739 86.6934 -1.40185 -72.2683 -13.9656 -92.8872 -168.459 25.9275 95.6784 -78.2687 16.7581 -0.453038 43.3517 -8.74603 -1.32081 33.0236 2.96997 8.64732 173.932 33.2186 96.1479 -58.0107 4.4168 0.80087 83.5565 -10.1136 -3.99777 44.4551 0.569494 -2.88357 0.417552 8.71898 -90.0228 9.43618 0.822566 -0.105648 -2.23451 0.817078 -0.141764 -24.7717 0.816255 0.146455 -4.75908 0.816276 0.146458 91.3552 -49.9051 -98.7712 22.3509 -9.7219 9.68256 -16.0093 -22.0103 -59.2261 -19.2105 -0.767974 -0.12323 -95.3986 -47.603 69.9815 -33.2454 15.2481 21.3307 -0.578518 0.522402 -54.4617 32.0008 1.78836 1.69282 16.2322 -6.14267 9.58929 14.5876 -8.42091 -0.369819 
-43.1767 86.3733 -0.678964 -70.4922 -9.20147 -92.8117 -165.422 40.3813 94.091 -88.3562 13.9457 -0.152275 44.6485 -7.76978 -1.70249 32.7053 2.68804 8.4814 175.187 25.9877 96.4503 -50.6004 3.69372 0.34848 88.8881 -13.1422 -4.5673 41.8829 0.606786 -0.917669 0.826778 8.59148 -89.966 9.68869 1.66359 -0.0621573 -1.98122 1.65922 -0.13535 -24.5243 1.60532 0.440816 -4.5116 1.60531 0.440803 92.0063 -46.2339 -98.5102 27.3001 -10.9441 3.44272 -23.1092 -15.305 -72.1448 -23.3268 -0.464441 -1.8742 -94.8194 -47.1574 70.7189 -38.6069 19.0855 29.2951 -2.3747 1.62113 -50.0333 30.4785 1.56516 1.24314 17.584 -5.52719 9.66262 13.3581 -7.82754 0.348419 
-50.8703 87.1053 -0.160051 -68.7599 -4.17858 -96.7703 -158.306 50.4352 87.0382 -88.0469 13.4209 -0.953189 47.2912 -6.6923 -1.09618 30.5825 0.662604 9.42806 176.707 20.0215 92.5925 -44.32 -1.07056 -2.13716 85.6668 -12.423 -4.67743 45.6189 0.8079 -0.411698 1.24339 8.37959 -89.3507 10.1023 2.77358 1.0568 -1.56598 2.81741 0.933623 -24.1156 2.32777 1.84181 -4.10296 2.32774 1.84178 93.6689 -43.6477 -96.3047 30.0725 -14.5938 -3.46339 -28.0756 -8.41413 -85.7584 -24.2111 -0.348316 -2.39876 -92.8095 -44.849 73.1326 -46.5864 21.7227 40.6871 -2.84005 1.07581 -54.957 26.315 1.31572 1.12548 16.6538 -6.19417 8.09964 14.6612 -7.81645 1.38871 
-59.635 89.18 0.707279 -69.7509 -0.51011 -98.3897 -157.505 54.8088 85.0113 -79.1978 15.8244 -2.46305 49.469 -6.57111 -0.0484995 32.2312 2.09991 11.0352 177.053 11.4693 89.5858 -37.4828 -9.45759 -4.41952 73.3778 -7.60021 -3.71134 51.0272 1.00787 -0.82161 1.67291 8.35091 -89.118 10.1487 3.73588 1.4365 -1.5175 3.79544 1.27049 -24.0787 3.13141 2.49353 -4.06609 3.1314 2.49352 94.0841 -40.4233 -96.2189 31.715 -17.0116 -7.16666 -31.1918 -1.3957 -95.5282 -29.8074 -0.492949 -1.79208 -91.545 -41.9913 74.3327 -54.9295 21.7402 50.0311 -2.41728 0.533913 -59.6733 25.813 0.394029 -2.45235 15.528 -6.42929 7.66073 13.0616 -8.01943 0.607717 
-69.4289 91.8146 1.96667 -70.9086 0.424424 -98.7639 -161.113 55.1277 85.9737 -62.7396 16.4152 -4.44132 48.6187 -8.15627 -2.07443 33.5466 3.32625 11.869 175.805 4.60594 86.8054 -30.8657 -16.5788 -5.47258 52.2127 0.675815 0.884897 52.2762 1.27697 1.64608 1.8906 8.2645 -89.029 10.3183 4.21071 1.56334 -1.34657 4.27543 1.37622 -23.9158 3.54618 2.75757 -3.90316 3.54618 2.75757 94.0671 -38.8505 -96.5633 32.0252 -18.0878 -7.54658 -32.765 5.35749 -102.279 -28.5645 -0.558386 -1.53268 -91.8414 -39.2113 73.0206 -61.2058 21.2453 55.5825 -2.3549 -0.23578 -62.8625 24.5456 -0.125473 -4.5093 14.217 -7.10573 6.98995 11.4314 -8.51884 0.0741075 
-79.9319 94.167 3.80166 -71.0643 1.30307 -98.4278 -164.875 52.1033 87.2859 -41.382 18.1379 -6.49174 46.6694 -9.78824 -4.05863 33.224 2.95876 13.0683 174.73 -0.301285 84.92 -26.368 -21.5755 -6.72375 36.9611 6.31291 6.55445 36.4829 0.61359 -5.23048 2.02811 8.08013 -89.0447 10.6867 4.47878 1.48956 -0.97714 4.53998 1.29064 -23.5535 3.82398 2.76813 -3.54085 3.82396 2.76812 94.2819 -37.4565 -96.4643 31.8884 -18.8028 -6.36911 -30.1591 6.76012 -105.147 -30.4381 -0.811991 -0.865036 -92.3033 -38.1025 71.8894 -63.957 20.0233 57.1267 -3.45618 -1.41653 -65.1251 25.6182 -0.21238 -4.85678 14.2594 -6.9683 7.74074 8.57764 -8.77498 -1.5781 
-90.5822 95.5678 5.65007 -71.7539 1.50848 -95.4605 -167.434 48.5689 89.5524 -23.3769 21.0838 -7.93422 44.5351 -11.4232 -4.81624 36.1611 5.84561 10.6078 175.971 -2.75715 86.8607 -30.3058 -17.8085 -6.7894 36.5273 6.16874 6.50007 26.1435 0.490663 -7.11845 2.05493 7.8797 -89.3632 11.1036 4.38595 0.842351 -0.560124 4.41877 0.64812 -23.1431 3.92975 2.12336 -3.13048 3.92979 2.12338 94.3336 -37.6332 -96.3341 30.9293 -17.9946 -3.8963 -27.1398 4.20792 -102.646 -30.5204 -0.712804 -1.39514 -91.5283 -37.7814 73.1081 -64.0553 18.609 55.882 -2.84436 -1.88823 -67.3406 25.5692 -0.201666 -4.81654 13.1661 -6.46076 7.16065 8.08985 -8.11182 -1.82904 
-100.65 95.5537 7.02189 -74.0735 1.59503 -93.5139 -165.328 45.2108 89.2155 -19.6869 13.6994 -9.94636 47.2477 -10.179 -5.88928 40.4849 9.97372 11.4139 177.316 -2.86624 88.7333 -41.6165 -9.17221 -5.98006 40.4053 4.20394 4.23419 26.821 0.395489 -6.07729 1.95261 7.84396 -89.5775 11.1835 4.08265 0.440974 -0.481002 4.09812 0.260555 -23.061 3.76113 1.64927 -3.04832 3.76112 1.64926 94.3466 -38.9738 -96.0404 29.4092 -16.4933 -0.275453 -24.5099 -1.00969 -96.8121 -26.7682 -0.637908 -1.59104 -91.5944 -40.4914 73.8141 -59.7218 17.4165 53.2326 -3.09427 -2.63609 -69.0323 26.6724 -0.0339271 -4.15982 11.5141 -6.08418 5.80672 8.58956 -7.33088 -1.43882 
-110.444 94.6166 8.31266 -76.8382 0.924199 -92.2847 -163.337 41.2939 87.804 -24.0671 9.5895 -11.0096 47.5897 -9.61014 -8.1425 43.5013 13.1171 13.8654 178.144 0.346522 90.0667 -57.0968 -2.17965 -4.83406 38.8153 3.8619 4.07229 23.5777 0.250831 -4.68708 1.72317 7.8628 -89.7204 11.1488 3.55962 0.2084 -0.517249 3.56535 0.051329 -23.0877 3.33222 1.26975 -3.07502 3.33224 1.26976 93.722 -40.3007 -96.8749 29.4899 -13.1791 5.19275 -24.9174 -5.98578 -89.6859 -23.0505 -0.604693 -1.45516 -92.1025 -43.8856 73.981 -53.1395 16.8379 48.4327 -4.3797 -3.20956 -68.9497 29.4718 0.2047 -3.32296 9.05909 -5.53831 5.54456 9.38913 -6.79151 -2.53592 
